<mxfile host="app.diagrams.net" agent="Mozilla/5.0 (Windows NT 10.0; Win64; x64) AppleWebKit/537.36 (KHTML, like Gecko) Chrome/128.0.0.0 Safari/537.36" version="24.7.10">
  <diagram name="페이지-1" id="4_kDkQWrBIfZNXKpYoOP">
    <mxGraphModel dx="989" dy="502" grid="1" gridSize="10" guides="1" tooltips="1" connect="1" arrows="1" fold="1" page="1" pageScale="1" pageWidth="827" pageHeight="1169" math="0" shadow="0">
      <root>
        <mxCell id="0" />
        <mxCell id="1" parent="0" />
        <mxCell id="ehqcp3LMLgf_8xWXIj8W-4" style="edgeStyle=orthogonalEdgeStyle;rounded=0;orthogonalLoop=1;jettySize=auto;html=1;exitX=0.5;exitY=1;exitDx=0;exitDy=0;entryX=0;entryY=0.5;entryDx=0;entryDy=0;" edge="1" parent="1" source="ehqcp3LMLgf_8xWXIj8W-1" target="ehqcp3LMLgf_8xWXIj8W-2">
          <mxGeometry relative="1" as="geometry">
            <Array as="points">
              <mxPoint x="280" y="140" />
            </Array>
          </mxGeometry>
        </mxCell>
        <mxCell id="ehqcp3LMLgf_8xWXIj8W-11" style="edgeStyle=orthogonalEdgeStyle;rounded=0;orthogonalLoop=1;jettySize=auto;html=1;exitX=0.5;exitY=1;exitDx=0;exitDy=0;entryX=0;entryY=0.5;entryDx=0;entryDy=0;" edge="1" parent="1" source="ehqcp3LMLgf_8xWXIj8W-1" target="ehqcp3LMLgf_8xWXIj8W-10">
          <mxGeometry relative="1" as="geometry" />
        </mxCell>
        <mxCell id="ehqcp3LMLgf_8xWXIj8W-13" style="edgeStyle=orthogonalEdgeStyle;rounded=0;orthogonalLoop=1;jettySize=auto;html=1;exitX=0.5;exitY=1;exitDx=0;exitDy=0;entryX=0;entryY=0.5;entryDx=0;entryDy=0;" edge="1" parent="1" source="ehqcp3LMLgf_8xWXIj8W-1" target="ehqcp3LMLgf_8xWXIj8W-12">
          <mxGeometry relative="1" as="geometry" />
        </mxCell>
        <mxCell id="ehqcp3LMLgf_8xWXIj8W-15" style="edgeStyle=orthogonalEdgeStyle;rounded=0;orthogonalLoop=1;jettySize=auto;html=1;exitX=0.5;exitY=1;exitDx=0;exitDy=0;entryX=0;entryY=0.5;entryDx=0;entryDy=0;" edge="1" parent="1" source="ehqcp3LMLgf_8xWXIj8W-1" target="ehqcp3LMLgf_8xWXIj8W-14">
          <mxGeometry relative="1" as="geometry" />
        </mxCell>
        <mxCell id="ehqcp3LMLgf_8xWXIj8W-17" style="edgeStyle=orthogonalEdgeStyle;rounded=0;orthogonalLoop=1;jettySize=auto;html=1;exitX=0.5;exitY=1;exitDx=0;exitDy=0;entryX=0;entryY=0.5;entryDx=0;entryDy=0;" edge="1" parent="1" source="ehqcp3LMLgf_8xWXIj8W-1" target="ehqcp3LMLgf_8xWXIj8W-16">
          <mxGeometry relative="1" as="geometry" />
        </mxCell>
        <mxCell id="ehqcp3LMLgf_8xWXIj8W-1" value="st_trct_h_t" style="text;whiteSpace=wrap;align=center;" vertex="1" parent="1">
          <mxGeometry x="240" y="80" width="80" height="30" as="geometry" />
        </mxCell>
        <mxCell id="ehqcp3LMLgf_8xWXIj8W-8" style="edgeStyle=orthogonalEdgeStyle;rounded=0;orthogonalLoop=1;jettySize=auto;html=1;exitX=1;exitY=0.25;exitDx=0;exitDy=0;entryX=0;entryY=0.5;entryDx=0;entryDy=0;" edge="1" parent="1" target="ehqcp3LMLgf_8xWXIj8W-5">
          <mxGeometry relative="1" as="geometry">
            <mxPoint x="400" y="130" as="sourcePoint" />
            <Array as="points">
              <mxPoint x="400" y="130" />
            </Array>
          </mxGeometry>
        </mxCell>
        <mxCell id="ehqcp3LMLgf_8xWXIj8W-9" style="edgeStyle=orthogonalEdgeStyle;rounded=0;orthogonalLoop=1;jettySize=auto;html=1;exitX=1;exitY=0.75;exitDx=0;exitDy=0;entryX=0;entryY=0.5;entryDx=0;entryDy=0;" edge="1" parent="1" target="ehqcp3LMLgf_8xWXIj8W-6">
          <mxGeometry relative="1" as="geometry">
            <mxPoint x="400" y="150" as="sourcePoint" />
            <Array as="points">
              <mxPoint x="400" y="150" />
            </Array>
          </mxGeometry>
        </mxCell>
        <mxCell id="ehqcp3LMLgf_8xWXIj8W-2" value="Trct Chain&amp;nbsp;" style="text;html=1;align=center;verticalAlign=middle;whiteSpace=wrap;rounded=0;" vertex="1" parent="1">
          <mxGeometry x="320" y="120" width="80" height="40" as="geometry" />
        </mxCell>
        <mxCell id="ehqcp3LMLgf_8xWXIj8W-5" value="st_trct_t in_trct" style="text;html=1;align=center;verticalAlign=middle;whiteSpace=wrap;rounded=0;" vertex="1" parent="1">
          <mxGeometry x="440" y="120" width="120" height="20" as="geometry" />
        </mxCell>
        <mxCell id="ehqcp3LMLgf_8xWXIj8W-18" style="edgeStyle=orthogonalEdgeStyle;rounded=0;orthogonalLoop=1;jettySize=auto;html=1;exitX=1;exitY=0.5;exitDx=0;exitDy=0;" edge="1" parent="1" source="ehqcp3LMLgf_8xWXIj8W-6">
          <mxGeometry relative="1" as="geometry">
            <mxPoint x="599.9999999999998" y="149.72413793103453" as="targetPoint" />
          </mxGeometry>
        </mxCell>
        <mxCell id="ehqcp3LMLgf_8xWXIj8W-6" value="st_trct_t out_trct" style="text;html=1;align=center;verticalAlign=middle;whiteSpace=wrap;rounded=0;" vertex="1" parent="1">
          <mxGeometry x="440" y="140" width="120" height="20" as="geometry" />
        </mxCell>
        <mxCell id="ehqcp3LMLgf_8xWXIj8W-10" value="Trct State" style="text;html=1;align=center;verticalAlign=middle;whiteSpace=wrap;rounded=0;" vertex="1" parent="1">
          <mxGeometry x="320" y="200" width="80" height="40" as="geometry" />
        </mxCell>
        <mxCell id="ehqcp3LMLgf_8xWXIj8W-12" value="User INFO" style="text;html=1;align=center;verticalAlign=middle;whiteSpace=wrap;rounded=0;" vertex="1" parent="1">
          <mxGeometry x="320" y="280" width="80" height="40" as="geometry" />
        </mxCell>
        <mxCell id="ehqcp3LMLgf_8xWXIj8W-14" value="CDR INFO" style="text;html=1;align=center;verticalAlign=middle;whiteSpace=wrap;rounded=0;" vertex="1" parent="1">
          <mxGeometry x="320" y="360" width="80" height="40" as="geometry" />
        </mxCell>
        <mxCell id="ehqcp3LMLgf_8xWXIj8W-16" value="REGI INFO" style="text;html=1;align=center;verticalAlign=middle;whiteSpace=wrap;rounded=0;" vertex="1" parent="1">
          <mxGeometry x="320" y="440" width="80" height="40" as="geometry" />
        </mxCell>
      </root>
    </mxGraphModel>
  </diagram>
</mxfile>
